<?xml version="1.0" encoding="UTF-8"?>
<!-- Generator: visioncortex VTracer 0.6.3 -->
<svg version="1.1" xmlns="http://www.w3.org/2000/svg" width="1280" height="1280">
<path d="M0 0 C422.4 0 844.8 0 1280 0 C1280 422.4 1280 844.8 1280 1280 C857.6 1280 435.2 1280 0 1280 C0 857.6 0 435.2 0 0 Z " fill="#FCFCFC" transform="translate(0,0)"/>
<path d="M0 0 C2.69 2.62 3.88 4.29 4.5 8.03 C4.5 9.16 4.49 10.3 4.49 11.47 C4.5 12.79 4.51 14.1 4.52 15.46 C4.5 16.92 4.49 18.38 4.48 19.84 C4.48 21.39 4.49 22.94 4.49 24.49 C4.5 28.76 4.48 33.02 4.46 37.28 C4.45 41.88 4.45 46.48 4.46 51.08 C4.46 59.04 4.45 67.01 4.42 74.98 C4.39 86.5 4.38 98.01 4.37 109.53 C4.37 128.22 4.34 146.91 4.3 165.59 C4.27 183.75 4.24 201.9 4.22 220.06 C4.22 221.18 4.22 222.29 4.22 223.45 C4.21 229.06 4.21 234.67 4.2 240.29 C4.16 286.86 4.09 333.43 4 380 C3.01 380.33 2.02 380.66 1 381 C1.12 385.34 1.24 389.68 1.37 394.02 C1.42 395.5 1.46 396.98 1.5 398.45 C1.56 400.58 1.62 402.7 1.68 404.83 C1.72 406.11 1.76 407.38 1.79 408.7 C1.96 411.32 2.23 413.51 3 416 C2.34 416 1.68 416 1 416 C0.88 416.72 0.75 417.44 0.62 418.19 C0.01 420.96 -0.88 423.4 -2 426 C-2.66 426 -3.32 426 -4 426 C-4.14 426.74 -4.29 427.49 -4.44 428.25 C-5.12 431.59 -5.92 434.76 -7 438 C-7.66 438 -8.32 438 -9 438 C-9 439.65 -9 441.3 -9 443 C-9.66 443 -10.32 443 -11 443 C-11.33 444.65 -11.66 446.3 -12 448 C-12.66 448 -13.32 448 -14 448 C-14 449.65 -14 451.3 -14 453 C-14.66 453 -15.32 453 -16 453 C-16 455.31 -16 457.62 -16 460 C-16.99 460.33 -17.98 460.66 -19 461 C-19.12 461.72 -19.25 462.44 -19.38 463.19 C-19.99 465.96 -20.88 468.4 -22 471 C-22.66 471 -23.32 471 -24 471 C-24.12 471.72 -24.25 472.44 -24.38 473.19 C-24.99 475.96 -25.88 478.4 -27 481 C-27.66 481 -28.32 481 -29 481 C-28.91 482.3 -28.91 482.3 -28.81 483.62 C-29.02 487.44 -30.12 489.71 -32 493 C-32.66 493 -33.32 493 -34 493 C-34 494.65 -34 496.3 -34 498 C-34.66 498 -35.32 498 -36 498 C-36.33 499.65 -36.66 501.3 -37 503 C-37.66 503 -38.32 503 -39 503 C-38.94 504.64 -38.94 504.64 -38.88 506.31 C-39 510 -39 510 -41 513 C-41.33 513.99 -41.66 514.98 -42 516 C-42.66 516 -43.32 516 -44 516 C-44.12 516.72 -44.25 517.44 -44.38 518.19 C-44.99 520.96 -45.88 523.4 -47 526 C-47.66 526 -48.32 526 -49 526 C-48.94 526.87 -48.88 527.73 -48.81 528.62 C-49.02 532.44 -50.12 534.71 -52 538 C-52.66 538 -53.32 538 -54 538 C-54 539.65 -54 541.3 -54 543 C-54.66 543 -55.32 543 -56 543 C-56.33 544.65 -56.66 546.3 -57 548 C-57.66 548 -58.32 548 -59 548 C-59 549.65 -59 551.3 -59 553 C-59.66 553 -60.32 553 -61 553 C-61 555.31 -61 557.62 -61 560 C-61.99 560.33 -62.98 560.66 -64 561 C-64.12 561.72 -64.25 562.44 -64.38 563.19 C-64.99 565.96 -65.88 568.4 -67 571 C-67.66 571 -68.32 571 -69 571 C-69.14 571.74 -69.29 572.49 -69.44 573.25 C-70.12 576.59 -70.92 579.76 -72 583 C-72.66 583 -73.32 583 -74 583 C-74 584.65 -74 586.3 -74 588 C-74.66 588 -75.32 588 -76 588 C-76.33 589.65 -76.66 591.3 -77 593 C-77.66 593 -78.32 593 -79 593 C-79 594.65 -79 596.3 -79 598 C-79.66 598 -80.32 598 -81 598 C-81 600.31 -81 602.62 -81 605 C-81.99 605.33 -82.98 605.66 -84 606 C-84.12 606.72 -84.25 607.44 -84.38 608.19 C-84.99 610.96 -85.88 613.4 -87 616 C-87.66 616 -88.32 616 -89 616 C-89.12 616.72 -89.25 617.44 -89.38 618.19 C-89.99 620.96 -90.88 623.4 -92 626 C-92.66 626 -93.32 626 -94 626 C-94 627.98 -94 629.96 -94 632 C-94.99 632.33 -95.98 632.66 -97 633 C-96.79 633.62 -96.59 634.24 -96.38 634.88 C-96.25 635.58 -96.13 636.28 -96 637 C-96.66 637.66 -97.32 638.32 -98 639 C-96.75 639.01 -95.5 639.02 -94.22 639.02 C-82.47 639.1 -70.73 639.19 -58.99 639.29 C-52.95 639.34 -46.91 639.38 -40.88 639.42 C-35.05 639.46 -29.23 639.5 -23.41 639.56 C-21.18 639.58 -18.96 639.59 -16.73 639.6 C-13.62 639.62 -10.51 639.65 -7.41 639.68 C-6.48 639.68 -5.55 639.69 -4.59 639.69 C-3.75 639.7 -2.91 639.71 -2.04 639.72 C-1.3 639.73 -0.57 639.73 0.19 639.74 C2 640 2 640 4 642 C4.25 644.82 4.25 644.82 4.25 648.5 C4.25 649.17 4.25 649.85 4.25 650.54 C4.26 652.81 4.25 655.09 4.24 657.36 C4.24 658.98 4.25 660.61 4.25 662.23 C4.25 666.65 4.25 671.07 4.24 675.49 C4.23 680.1 4.23 684.72 4.23 689.34 C4.23 697.09 4.22 704.84 4.21 712.59 C4.19 721.57 4.18 730.54 4.19 739.52 C4.19 748.14 4.18 756.75 4.17 765.37 C4.17 769.05 4.17 772.72 4.17 776.4 C4.17 780.72 4.16 785.04 4.15 789.37 C4.15 790.96 4.15 792.55 4.15 794.14 C4.15 796.3 4.14 798.47 4.13 800.63 C4.13 801.84 4.13 803.06 4.13 804.31 C4 807 4 807 3 808 C0.67 808.04 -1.67 808.04 -4 808 C-4 808.66 -4 809.32 -4 810 C-5.37 810 -5.37 810 -6.77 810 C-28.99 810.04 -51.2 810.1 -73.42 810.18 C-84.16 810.22 -94.9 810.26 -105.65 810.27 C-115.01 810.28 -124.37 810.31 -133.74 810.35 C-138.69 810.38 -143.65 810.39 -148.61 810.39 C-153.28 810.39 -157.94 810.41 -162.61 810.44 C-164.32 810.45 -166.04 810.45 -167.75 810.45 C-170.09 810.44 -172.42 810.46 -174.76 810.48 C-176.72 810.49 -176.72 810.49 -178.73 810.49 C-182.55 811.09 -183.73 811.92 -186 815 C-186.8 818.14 -186.8 818.14 -187 821 C-187.66 821 -188.32 821 -189 821 C-189.12 821.72 -189.25 822.44 -189.38 823.19 C-189.99 825.96 -190.88 828.4 -192 831 C-192.66 831 -193.32 831 -194 831 C-193.94 831.87 -193.88 832.73 -193.81 833.62 C-194.02 837.44 -195.12 839.71 -197 843 C-197.66 843 -198.32 843 -199 843 C-198.91 844.55 -198.91 844.55 -198.81 846.12 C-199.01 850.23 -199.94 852.49 -202 856 C-202.66 856 -203.32 856 -204 856 C-204.14 856.74 -204.29 857.49 -204.44 858.25 C-205.12 861.59 -205.92 864.76 -207 868 C-207.66 868 -208.32 868 -209 868 C-209 869.65 -209 871.3 -209 873 C-209.66 873 -210.32 873 -211 873 C-211.33 874.65 -211.66 876.3 -212 878 C-212.66 878 -213.32 878 -214 878 C-213.96 879.09 -213.92 880.19 -213.88 881.31 C-214 885 -214 885 -216 888 C-216.33 888.99 -216.66 889.98 -217 891 C-217.66 891 -218.32 891 -219 891 C-218.94 891.87 -218.88 892.73 -218.81 893.62 C-219.02 897.44 -220.12 899.71 -222 903 C-222.66 903 -223.32 903 -224 903 C-224 904.65 -224 906.3 -224 908 C-224.66 908 -225.32 908 -226 908 C-226 910.31 -226 912.62 -226 915 C-226.99 915.33 -227.98 915.66 -229 916 C-229.12 916.72 -229.25 917.44 -229.38 918.19 C-229.99 920.96 -230.88 923.4 -232 926 C-232.66 926 -233.32 926 -234 926 C-233.94 926.87 -233.88 927.73 -233.81 928.62 C-234.02 932.44 -235.12 934.71 -237 938 C-237.66 938 -238.32 938 -239 938 C-238.94 939.03 -238.88 940.06 -238.81 941.12 C-239.01 945.23 -239.94 947.49 -242 951 C-242.66 951 -243.32 951 -244 951 C-244.14 951.74 -244.29 952.49 -244.44 953.25 C-245.12 956.59 -245.92 959.76 -247 963 C-247.66 963 -248.32 963 -249 963 C-249 964.65 -249 966.3 -249 968 C-249.66 968 -250.32 968 -251 968 C-251.33 969.65 -251.66 971.3 -252 973 C-252.66 973 -253.32 973 -254 973 C-253.96 974.09 -253.92 975.19 -253.88 976.31 C-254 980 -254 980 -256 983 C-256.33 983.99 -256.66 984.98 -257 986 C-257.66 986 -258.32 986 -259 986 C-258.94 986.87 -258.88 987.73 -258.81 988.62 C-259.02 992.44 -260.12 994.71 -262 998 C-262.66 998 -263.32 998 -264 998 C-264 999.65 -264 1001.3 -264 1003 C-264.66 1003 -265.32 1003 -266 1003 C-266 1005.31 -266 1007.62 -266 1010 C-266.99 1010.33 -267.98 1010.66 -269 1011 C-269.12 1011.72 -269.25 1012.44 -269.38 1013.19 C-269.99 1015.96 -270.88 1018.4 -272 1021 C-272.66 1021 -273.32 1021 -274 1021 C-273.98 1021.59 -273.95 1022.18 -273.93 1022.79 C-273.91 1023.58 -273.89 1024.37 -273.88 1025.19 C-273.85 1025.96 -273.83 1026.74 -273.8 1027.54 C-274.03 1030.34 -274.92 1032.42 -276 1035 C-298.86 1035.22 -321.72 1035.42 -344.58 1035.6 C-355.2 1035.68 -365.81 1035.77 -376.43 1035.87 C-385.68 1035.97 -394.93 1036.05 -404.18 1036.11 C-409.08 1036.14 -413.98 1036.18 -418.88 1036.24 C-423.49 1036.29 -428.1 1036.33 -432.71 1036.35 C-434.4 1036.36 -436.09 1036.37 -437.79 1036.4 C-440.1 1036.43 -442.41 1036.44 -444.72 1036.44 C-446.01 1036.45 -447.3 1036.47 -448.64 1036.48 C-452.59 1035.92 -454.25 1034.86 -457 1032 C-457.56 1028.94 -457.56 1028.94 -457 1026 C-456.36 1025.57 -455.72 1025.13 -455.06 1024.69 C-452.46 1022.56 -452.59 1021.58 -452.25 1018.31 C-452.15 1016.88 -452.06 1015.44 -452 1014 C-450.35 1013.67 -448.7 1013.34 -447 1013 C-447.06 1011.58 -447.06 1011.58 -447.12 1010.12 C-447 1007 -447 1007 -445 1005 C-444.15 1002.69 -443.48 1000.36 -442.78 998 C-442 996 -442 996 -440 995 C-439.28 993.02 -438.62 991.01 -438 989 C-437.33 987.33 -436.67 985.67 -436 984 C-435.32 982 -434.65 980 -434 978 C-433.01 978 -432.02 978 -431 978 C-431.33 977.01 -431.66 976.02 -432 975 C-431.34 974.34 -430.68 973.68 -430 973 C-429.6 970.68 -429.26 968.34 -429 966 C-428.34 966 -427.68 966 -427 966 C-427 964.35 -427 962.7 -427 961 C-426.34 960.67 -425.68 960.34 -425 960 C-424.35 957.98 -424.35 957.98 -424 956 C-423.34 956 -422.68 956 -422 956 C-422.02 955.05 -422.04 954.1 -422.06 953.12 C-422 950 -422 950 -421 948 C-420.34 948 -419.68 948 -419 948 C-419 946.35 -419 944.7 -419 943 C-418.01 943 -417.02 943 -416 943 C-416.5 941.51 -416.5 941.51 -417 940 C-416.34 939.34 -415.68 938.68 -415 938 C-414.35 935.43 -414.35 935.43 -414 933 C-413.34 933 -412.68 933 -412 933 C-412 930.69 -412 928.38 -412 926 C-411.34 925.67 -410.68 925.34 -410 925 C-409.17 922.92 -409.17 922.92 -408.5 920.5 C-407.78 918.03 -407.78 918.03 -407 916 C-406.34 915.67 -405.68 915.34 -405 915 C-404.28 913.02 -403.62 911.01 -403 909 C-402.33 907.33 -401.67 905.67 -401 904 C-400.32 902 -399.65 900 -399 898 C-398.34 898 -397.68 898 -397 898 C-397.04 897.05 -397.08 896.1 -397.12 895.12 C-397 892 -397 892 -395 890 C-394.15 887.69 -393.48 885.36 -392.78 883 C-392 881 -392 881 -390 880 C-389.35 877.98 -389.35 877.98 -389 876 C-388.34 876 -387.68 876 -387 876 C-387.02 875.05 -387.04 874.1 -387.06 873.12 C-387 870 -387 870 -386 868 C-385.34 868 -384.68 868 -384 868 C-384 866.35 -384 864.7 -384 863 C-383.01 863 -382.02 863 -381 863 C-381.5 861.51 -381.5 861.51 -382 860 C-381.34 859.34 -380.68 858.68 -380 858 C-379.6 855.68 -379.26 853.34 -379 851 C-378.34 851 -377.68 851 -377 851 C-377 849.35 -377 847.7 -377 846 C-376.34 845.67 -375.68 845.34 -375 845 C-374.17 842.92 -374.17 842.92 -373.5 840.5 C-372.78 838.03 -372.78 838.03 -372 836 C-371.34 835.67 -370.68 835.34 -370 835 C-369.28 833.02 -368.62 831.01 -368 829 C-367.33 827.33 -366.67 825.67 -366 824 C-365.32 822 -364.65 820 -364 818 C-363.34 818 -362.68 818 -362 818 C-362.04 817.05 -362.08 816.1 -362.12 815.12 C-362 812 -362 812 -360 810 C-359.15 807.69 -358.48 805.36 -357.78 803 C-357 801 -357 801 -355 800 C-354.28 798.02 -353.62 796.01 -353 794 C-352.33 792.33 -351.67 790.67 -351 789 C-350.32 787 -349.65 785 -349 783 C-348.01 783 -347.02 783 -346 783 C-346.5 781.51 -346.5 781.51 -347 780 C-346.34 779.34 -345.68 778.68 -345 778 C-344.6 775.68 -344.26 773.34 -344 771 C-343.34 771 -342.68 771 -342 771 C-342 769.35 -342 767.7 -342 766 C-341.34 765.67 -340.68 765.34 -340 765 C-339.35 762.98 -339.35 762.98 -339 761 C-338.34 761 -337.68 761 -337 761 C-337.02 760.05 -337.04 759.1 -337.06 758.12 C-337 755 -337 755 -336 753 C-335.34 753 -334.68 753 -334 753 C-334 751.35 -334 749.7 -334 748 C-333.01 748 -332.02 748 -331 748 C-331.5 746.51 -331.5 746.51 -332 745 C-331.34 744.34 -330.68 743.68 -330 743 C-329.35 740.43 -329.35 740.43 -329 738 C-328.34 738 -327.68 738 -327 738 C-327 735.69 -327 733.38 -327 731 C-326.34 730.67 -325.68 730.34 -325 730 C-324.17 727.92 -324.17 727.92 -323.5 725.5 C-322.78 723.03 -322.78 723.03 -322 721 C-321.34 720.67 -320.68 720.34 -320 720 C-319.28 718.02 -318.62 716.01 -318 714 C-317.33 712.33 -316.67 710.67 -316 709 C-315.32 707 -314.65 705 -314 703 C-313.34 703 -312.68 703 -312 703 C-312.04 702.05 -312.08 701.1 -312.12 700.12 C-312 697 -312 697 -310 695 C-309.15 692.69 -308.48 690.36 -307.78 688 C-307 686 -307 686 -305 685 C-304.35 682.98 -304.35 682.98 -304 681 C-303.34 681 -302.68 681 -302 681 C-302.03 679.58 -302.03 679.58 -302.06 678.12 C-302 675 -302 675 -301 673 C-300.34 673 -299.68 673 -299 673 C-299 671.35 -299 669.7 -299 668 C-298.01 668 -297.02 668 -296 668 C-296.33 667.01 -296.66 666.02 -297 665 C-296.34 664.34 -295.68 663.68 -295 663 C-294.6 660.68 -294.26 658.34 -294 656 C-293.34 656 -292.68 656 -292 656 C-292 654.35 -292 652.7 -292 651 C-291.34 650.67 -290.68 650.34 -290 650 C-289.17 647.92 -289.17 647.92 -288.5 645.5 C-287.78 643.03 -287.78 643.03 -287 641 C-286.34 640.67 -285.68 640.34 -285 640 C-284.28 638.02 -283.62 636.01 -283 634 C-282.33 632.33 -281.67 630.67 -281 629 C-280.32 627 -279.65 625 -279 623 C-278.34 623 -277.68 623 -277 623 C-277.04 622.05 -277.08 621.1 -277.12 620.12 C-277 617 -277 617 -275 615 C-274.15 612.69 -273.48 610.36 -272.78 608 C-272 606 -272 606 -270 605 C-269.28 603.02 -268.62 601.01 -268 599 C-267.33 597.33 -266.67 595.67 -266 594 C-265.32 592 -264.65 590 -264 588 C-263.01 588 -262.02 588 -261 588 C-261.33 587.01 -261.66 586.02 -262 585 C-261.34 584.34 -260.68 583.68 -260 583 C-259.6 580.68 -259.26 578.34 -259 576 C-258.34 576 -257.68 576 -257 576 C-257 574.35 -257 572.7 -257 571 C-256.34 570.67 -255.68 570.34 -255 570 C-254.35 567.98 -254.35 567.98 -254 566 C-253.34 566 -252.68 566 -252 566 C-252.03 564.58 -252.03 564.58 -252.06 563.12 C-252 560 -252 560 -251 558 C-250.34 558 -249.68 558 -249 558 C-249 556.35 -249 554.7 -249 553 C-248.01 553 -247.02 553 -246 553 C-246.33 552.01 -246.66 551.02 -247 550 C-246.34 549.34 -245.68 548.68 -245 548 C-244.35 545.43 -244.35 545.43 -244 543 C-243.34 543 -242.68 543 -242 543 C-242.04 542.05 -242.08 541.1 -242.12 540.12 C-242 537 -242 537 -240 535 C-239.15 532.69 -238.48 530.36 -237.78 528 C-237 526 -237 526 -235 525 C-234.28 523.02 -233.62 521.01 -233 519 C-232.33 517.33 -231.67 515.67 -231 514 C-230.32 512 -229.65 510 -229 508 C-228.34 508 -227.68 508 -227 508 C-227.04 507.05 -227.08 506.1 -227.12 505.12 C-227 502 -227 502 -225 500 C-224.36 497.93 -224.36 497.93 -224 496 C-223.34 496 -222.68 496 -222 496 C-222.02 495.05 -222.04 494.1 -222.06 493.12 C-222 490 -222 490 -221 488 C-220.34 488 -219.68 488 -219 488 C-219 486.35 -219 484.7 -219 483 C-218.01 483 -217.02 483 -216 483 C-216.33 482.01 -216.66 481.02 -217 480 C-216.34 479.34 -215.68 478.68 -215 478 C-214.6 475.68 -214.26 473.34 -214 471 C-213.34 471 -212.68 471 -212 471 C-212 469.35 -212 467.7 -212 466 C-211.34 465.67 -210.68 465.34 -210 465 C-209.35 462.98 -209.35 462.98 -209 461 C-208.34 461 -207.68 461 -207 461 C-207.02 460.05 -207.04 459.1 -207.06 458.12 C-207 455 -207 455 -206 453 C-205.34 453 -204.68 453 -204 453 C-204 451.35 -204 449.7 -204 448 C-203.01 448 -202.02 448 -201 448 C-201.33 447.01 -201.66 446.02 -202 445 C-201.34 444.34 -200.68 443.68 -200 443 C-199.35 440.43 -199.35 440.43 -199 438 C-198.34 438 -197.68 438 -197 438 C-197 435.69 -197 433.38 -197 431 C-196.34 430.67 -195.68 430.34 -195 430 C-194.17 427.92 -194.17 427.92 -193.5 425.5 C-192.78 423.03 -192.78 423.03 -192 421 C-191.34 420.67 -190.68 420.34 -190 420 C-189.28 418.02 -188.62 416.01 -188 414 C-187.33 412.33 -186.67 410.67 -186 409 C-185.32 407 -184.65 405 -184 403 C-183.34 403 -182.68 403 -182 403 C-182.04 402.05 -182.08 401.1 -182.12 400.12 C-182 397 -182 397 -180 395 C-179.15 392.69 -178.48 390.36 -177.78 388 C-177 386 -177 386 -175 385 C-174.28 383.02 -173.62 381.01 -173 379 C-172.33 377.33 -171.67 375.67 -171 374 C-170.32 372 -169.65 370 -169 368 C-168.34 368 -167.68 368 -167 368 C-167.04 367.05 -167.08 366.1 -167.12 365.12 C-167 362 -167 362 -165 360 C-164.15 357.69 -163.48 355.36 -162.78 353 C-162 351 -162 351 -160 350 C-159.35 347.98 -159.35 347.98 -159 346 C-158.34 346 -157.68 346 -157 346 C-157.02 345.05 -157.04 344.1 -157.06 343.12 C-157 340 -157 340 -156 338 C-155.34 338 -154.68 338 -154 338 C-154 336.35 -154 334.7 -154 333 C-153.01 333 -152.02 333 -151 333 C-151.33 332.01 -151.66 331.02 -152 330 C-151.34 329.34 -150.68 328.68 -150 328 C-149.6 325.68 -149.26 323.34 -149 321 C-148.34 321 -147.68 321 -147 321 C-147 319.35 -147 317.7 -147 316 C-146.34 315.67 -145.68 315.34 -145 315 C-144.35 312.98 -144.35 312.98 -144 311 C-143.34 311 -142.68 311 -142 311 C-142.02 310.05 -142.04 309.1 -142.06 308.12 C-142 305 -142 305 -141 303 C-140.34 303 -139.68 303 -139 303 C-139 301.35 -139 299.7 -139 298 C-138.01 298 -137.02 298 -136 298 C-136.33 297.01 -136.66 296.02 -137 295 C-136.34 294.34 -135.68 293.68 -135 293 C-134.6 290.68 -134.26 288.34 -134 286 C-133.34 286 -132.68 286 -132 286 C-132 284.35 -132 282.7 -132 281 C-131.34 280.67 -130.68 280.34 -130 280 C-129.35 277.98 -129.35 277.98 -129 276 C-128.34 276 -127.68 276 -127 276 C-127.02 275.05 -127.04 274.1 -127.06 273.12 C-127 270 -127 270 -126 268 C-125.34 268 -124.68 268 -124 268 C-124 266.35 -124 264.7 -124 263 C-123.01 263 -122.02 263 -121 263 C-121.33 262.01 -121.66 261.02 -122 260 C-121.34 259.34 -120.68 258.68 -120 258 C-119.6 255.68 -119.26 253.34 -119 251 C-118.34 251 -117.68 251 -117 251 C-117 249.35 -117 247.7 -117 246 C-116.34 245.67 -115.68 245.34 -115 245 C-114.17 242.92 -114.17 242.92 -113.5 240.5 C-112.78 238.03 -112.78 238.03 -112 236 C-111.34 235.67 -110.68 235.34 -110 235 C-109.28 233.02 -108.62 231.01 -108 229 C-107.33 227.33 -106.67 225.67 -106 224 C-105.32 222 -104.65 220 -104 218 C-103.34 218 -102.68 218 -102 218 C-102.06 216.58 -102.06 216.58 -102.12 215.12 C-102 212 -102 212 -100 210 C-99.15 207.69 -98.48 205.36 -97.78 203 C-97 201 -97 201 -95 200 C-94.28 198.02 -93.62 196.01 -93 194 C-92.33 192.33 -91.67 190.67 -91 189 C-90.32 187 -89.65 185 -89 183 C-88.34 183 -87.68 183 -87 183 C-87.06 181.58 -87.06 181.58 -87.12 180.12 C-87 177 -87 177 -85 175 C-84.15 172.69 -83.48 170.36 -82.78 168 C-82 166 -82 166 -80 165 C-79.28 163.02 -78.62 161.01 -78 159 C-77.33 157.33 -76.67 155.67 -76 154 C-75.32 152 -74.65 150 -74 148 C-73.01 148 -72.02 148 -71 148 C-71.33 147.01 -71.66 146.02 -72 145 C-71.34 144.34 -70.68 143.68 -70 143 C-69.6 140.68 -69.26 138.34 -69 136 C-68.34 136 -67.68 136 -67 136 C-67 134.35 -67 132.7 -67 131 C-66.34 130.67 -65.68 130.34 -65 130 C-64.35 127.98 -64.35 127.98 -64 126 C-63.34 126 -62.68 126 -62 126 C-62.03 124.58 -62.03 124.58 -62.06 123.12 C-62 120 -62 120 -61 118 C-60.34 118 -59.68 118 -59 118 C-59 116.35 -59 114.7 -59 113 C-58.01 113 -57.02 113 -56 113 C-56.33 112.01 -56.66 111.02 -57 110 C-56.34 109.34 -55.68 108.68 -55 108 C-54.6 105.68 -54.26 103.34 -54 101 C-53.34 101 -52.68 101 -52 101 C-52 99.35 -52 97.7 -52 96 C-51.34 95.67 -50.68 95.34 -50 95 C-49.35 92.98 -49.35 92.98 -49 91 C-48.34 91 -47.68 91 -47 91 C-47.03 89.58 -47.03 89.58 -47.06 88.12 C-47 85 -47 85 -46 83 C-45.34 83 -44.68 83 -44 83 C-44 81.35 -44 79.7 -44 78 C-43.01 78 -42.02 78 -41 78 C-41.33 77.01 -41.66 76.02 -42 75 C-41.34 74.34 -40.68 73.68 -40 73 C-39.6 70.68 -39.26 68.34 -39 66 C-38.34 66 -37.68 66 -37 66 C-37 64.35 -37 62.7 -37 61 C-36.34 60.67 -35.68 60.34 -35 60 C-34.35 57.98 -34.35 57.98 -34 56 C-33.34 56 -32.68 56 -32 56 C-32.03 54.58 -32.03 54.58 -32.06 53.12 C-32 50 -32 50 -31 48 C-30.34 48 -29.68 48 -29 48 C-29 46.35 -29 44.7 -29 43 C-28.01 43 -27.02 43 -26 43 C-26.33 42.01 -26.66 41.02 -27 40 C-26.34 39.34 -25.68 38.68 -25 38 C-24.35 35.43 -24.35 35.43 -24 33 C-23.34 33 -22.68 33 -22 33 C-22 30.69 -22 28.38 -22 26 C-21.34 25.67 -20.68 25.34 -20 25 C-19.17 22.92 -19.17 22.92 -18.5 20.5 C-17.78 18.03 -17.78 18.03 -17 16 C-16.34 15.67 -15.68 15.34 -15 15 C-14.27 12.82 -14.27 12.82 -13.69 10.25 C-11.55 2.84 -8.28 -1.51 0 0 Z " fill="#000000" transform="translate(701,104)"/>
<path d="M0 0 C0.84 -0 1.68 -0 2.55 -0.01 C5.39 -0.01 8.22 -0.01 11.06 -0.01 C13.08 -0.01 15.11 -0.02 17.14 -0.02 C22.65 -0.03 28.17 -0.03 33.69 -0.03 C38.28 -0.03 42.88 -0.04 47.48 -0.04 C58.32 -0.05 69.16 -0.05 80.01 -0.05 C91.21 -0.05 102.41 -0.06 113.61 -0.08 C123.22 -0.09 132.82 -0.1 142.42 -0.1 C148.17 -0.09 153.91 -0.1 159.65 -0.11 C165.05 -0.12 170.45 -0.12 175.84 -0.11 C177.83 -0.11 179.82 -0.11 181.8 -0.12 C184.5 -0.13 187.2 -0.12 189.9 -0.11 C190.7 -0.12 191.49 -0.12 192.31 -0.13 C197.72 -0.09 197.72 -0.09 199.95 2.13 C200.2 4.44 200.2 4.44 200.2 7.4 C200.21 8.53 200.21 9.66 200.21 10.82 C200.21 12.07 200.2 13.32 200.2 14.61 C200.2 15.95 200.2 17.28 200.21 18.62 C200.21 22.33 200.21 26.03 200.2 29.74 C200.19 33.76 200.19 37.77 200.2 41.79 C200.2 48.85 200.2 55.9 200.19 62.96 C200.18 73.45 200.18 83.94 200.18 94.43 C200.18 112.07 200.18 129.71 200.16 147.35 C200.15 164.83 200.14 182.31 200.14 199.78 C200.14 200.87 200.14 201.95 200.14 203.07 C200.14 208.58 200.14 214.09 200.14 219.61 C200.14 258.68 200.12 297.75 200.1 336.82 C200.08 374.78 200.07 412.75 200.06 450.71 C200.06 451.88 200.06 453.05 200.06 454.25 C200.06 466 200.06 477.74 200.05 489.49 C200.05 513.42 200.04 537.34 200.04 561.27 C200.04 562.92 200.04 562.92 200.04 564.61 C200.02 638.12 199.99 711.62 199.95 785.13 C172.72 785.16 145.49 785.17 118.25 785.19 C105.61 785.19 92.97 785.2 80.32 785.21 C69.31 785.22 58.29 785.23 47.27 785.23 C41.44 785.23 35.6 785.23 29.76 785.24 C24.28 785.25 18.79 785.25 13.3 785.25 C11.28 785.25 9.26 785.25 7.24 785.25 C4.5 785.26 1.75 785.26 -0.99 785.25 C-1.8 785.26 -2.61 785.26 -3.45 785.26 C-8.93 785.25 -8.93 785.25 -10.05 784.13 C-10.15 782.42 -10.17 780.7 -10.17 778.99 C-10.18 777.3 -10.18 777.3 -10.18 775.58 C-10.18 774.33 -10.17 773.07 -10.17 771.78 C-10.17 770.45 -10.17 769.11 -10.17 767.77 C-10.18 764.07 -10.17 760.36 -10.17 756.65 C-10.17 752.63 -10.17 748.62 -10.17 744.6 C-10.17 737.54 -10.17 730.49 -10.17 723.43 C-10.16 712.94 -10.16 702.45 -10.16 691.96 C-10.16 674.31 -10.16 656.66 -10.15 639.02 C-10.15 621.54 -10.14 604.06 -10.14 586.58 C-10.14 585.49 -10.14 584.41 -10.14 583.29 C-10.14 577.78 -10.14 572.27 -10.14 566.75 C-10.14 527.68 -10.13 488.6 -10.12 449.52 C-10.11 411.55 -10.11 373.58 -10.1 335.61 C-10.1 334.44 -10.1 333.27 -10.1 332.07 C-10.1 320.32 -10.1 308.58 -10.1 296.83 C-10.1 272.9 -10.09 248.97 -10.09 225.04 C-10.09 223.94 -10.09 222.84 -10.09 221.7 C-10.08 148.18 -10.06 74.66 -10.05 1.13 C-6.88 -0.45 -3.48 -0.01 0 0 Z " fill="#FC1D1C" transform="translate(732.047607421875,363.8662872314453)"/>
<path d="M0 0 C1.19 0.01 1.19 0.01 2.41 0.02 C3.67 0.01 3.67 0.01 4.96 0.01 C7.8 0 10.64 0.01 13.48 0.02 C15.5 0.02 17.53 0.02 19.56 0.01 C25.08 0.01 30.6 0.02 36.12 0.03 C41.89 0.04 47.65 0.03 53.42 0.03 C63.1 0.03 72.78 0.04 82.46 0.06 C93.67 0.07 104.89 0.08 116.1 0.08 C126.86 0.08 137.62 0.08 148.39 0.09 C152.98 0.09 157.57 0.1 162.16 0.1 C167.56 0.1 172.96 0.1 178.36 0.11 C180.35 0.12 182.34 0.12 184.32 0.12 C187.02 0.12 189.73 0.12 192.43 0.13 C193.22 0.13 194.02 0.13 194.84 0.12 C200.24 0.15 200.24 0.15 201.35 1.26 C201.45 4.04 201.48 6.8 201.48 9.58 C201.48 10.91 201.48 10.91 201.48 12.26 C201.48 15.24 201.47 18.22 201.47 21.2 C201.47 23.33 201.47 25.46 201.47 27.59 C201.47 33.39 201.46 39.18 201.46 44.98 C201.45 51.03 201.45 57.08 201.45 63.13 C201.45 74.6 201.44 86.07 201.43 97.54 C201.42 110.59 201.41 123.64 201.41 136.69 C201.39 163.55 201.38 190.41 201.35 217.26 C174.25 217.29 147.15 217.3 120.05 217.31 C107.46 217.32 94.88 217.33 82.3 217.34 C71.33 217.35 60.37 217.35 49.41 217.36 C43.6 217.36 37.79 217.36 31.98 217.37 C26.52 217.38 21.06 217.38 15.6 217.38 C13.59 217.38 11.58 217.38 9.57 217.38 C6.84 217.39 4.1 217.39 1.37 217.38 C0.57 217.39 -0.24 217.39 -1.07 217.39 C-6.53 217.38 -6.53 217.38 -7.65 216.26 C-7.75 213.51 -7.78 210.78 -7.78 208.03 C-7.78 207.16 -7.78 206.29 -7.79 205.39 C-7.79 202.44 -7.79 199.49 -7.79 196.54 C-7.79 194.43 -7.8 192.33 -7.8 190.22 C-7.81 184.49 -7.81 178.75 -7.81 173.01 C-7.81 168.24 -7.82 163.46 -7.82 158.68 C-7.83 147.41 -7.83 136.14 -7.83 124.87 C-7.83 113.22 -7.84 101.57 -7.86 89.93 C-7.87 79.95 -7.87 69.96 -7.87 59.98 C-7.87 54.01 -7.88 48.04 -7.89 42.08 C-7.9 36.46 -7.9 30.85 -7.89 25.24 C-7.89 23.18 -7.89 21.11 -7.9 19.05 C-7.9 16.24 -7.9 13.43 -7.89 10.62 C-7.9 9.79 -7.9 8.97 -7.91 8.12 C-7.87 1.34 -6.82 0.04 0 0 Z " fill="#C7C5C5" transform="translate(729.645162165165,101.73717528581619)"/>
</svg>
